<?xml version="1.0" standalone="no"?><!DOCTYPE svg PUBLIC "-//W3C//DTD SVG 1.1//EN" "http://www.w3.org/Graphics/SVG/1.1/DTD/svg11.dtd"><svg t="1746626088986" class="icon" viewBox="0 0 1024 1024" version="1.1" xmlns="http://www.w3.org/2000/svg" p-id="2688" xmlns:xlink="http://www.w3.org/1999/xlink" width="200" height="200"><path d="M909 959H115a50 50 0 0 1-50-50V769a50 50 0 0 1 50-50h794a50 50 0 0 1 50 50v140a50 50 0 0 1-50 50z m-10-165a15 15 0 0 0-15-15H140a15 15 0 0 0-15 15v15h574.25a30 30 0 0 1 0 60H125v15a15 15 0 0 0 15 15h744a15 15 0 0 0 15-15v-90z m10-162H115a50 50 0 0 1-50-50V442a50 50 0 0 1 50-50h794a50 50 0 0 1 50 50v140a50 50 0 0 1-50 50z m-10-165a15 15 0 0 0-15-15H140a15 15 0 0 0-15 15v15h325.575a30 30 0 1 1 0 60H125v15a15 15 0 0 0 15 15h744a15 15 0 0 0 15-15v-90z m10-162H115a50 50 0 0 1-50-50V115a50 50 0 0 1 50-50h794a50 50 0 0 1 50 50v140a50 50 0 0 1-50 50z m-10-165a15 15 0 0 0-15-15H140a15 15 0 0 0-15 15v15h660a30 30 0 0 1 0 60H125v15a15 15 0 0 0 15 15h744a15 15 0 0 0 15-15v-90z" fill="#36ab60" p-id="2689"></path></svg>